<?xml version="1.0" encoding="utf-8" standalone="no"?>
<!DOCTYPE svg PUBLIC "-//W3C//DTD SVG 1.1//EN"
  "http://www.w3.org/Graphics/SVG/1.1/DTD/svg11.dtd">
<!-- Created with matplotlib (https://matplotlib.org/) -->
<svg height="720pt" version="1.1" viewBox="0 0 720 720" width="720pt" xmlns="http://www.w3.org/2000/svg" xmlns:xlink="http://www.w3.org/1999/xlink">
 <metadata>
  <rdf:RDF xmlns:cc="http://creativecommons.org/ns#" xmlns:dc="http://purl.org/dc/elements/1.1/" xmlns:rdf="http://www.w3.org/1999/02/22-rdf-syntax-ns#">
   <cc:Work>
    <dc:type rdf:resource="http://purl.org/dc/dcmitype/StillImage"/>
    <dc:date>2021-04-29T21:45:08.122988</dc:date>
    <dc:format>image/svg+xml</dc:format>
    <dc:creator>
     <cc:Agent>
      <dc:title>Matplotlib v3.3.4, https://matplotlib.org/</dc:title>
     </cc:Agent>
    </dc:creator>
   </cc:Work>
  </rdf:RDF>
 </metadata>
 <defs>
  <style type="text/css">*{stroke-linecap:butt;stroke-linejoin:round;}</style>
 </defs>
 <g id="figure_1">
  <g id="patch_1">
   <path d="M 0 720 
L 720 720 
L 720 0 
L 0 0 
z
" style="fill:#ffffff;"/>
  </g>
  <g id="axes_1">
   <g id="patch_2">
    <path d="M 90 640.8 
L 648 640.8 
L 648 86.4 
L 90 86.4 
z
" style="fill:#ffffff;"/>
   </g>
   <g id="matplotlib.axis_1">
    <g id="xtick_1">
     <g id="line2d_1">
      <defs>
       <path d="M 0 0 
L 0 3.5 
" id="mff7d56a91b" style="stroke:#000000;stroke-width:0.8;"/>
      </defs>
      <g>
       <use style="stroke:#000000;stroke-width:0.8;" x="115.363636" xlink:href="#mff7d56a91b" y="640.8"/>
      </g>
     </g>
     <g id="text_1">
      <!-- 0 -->
      <g transform="translate(112.182386 655.398438)scale(0.1 -0.1)">
       <defs>
        <path d="M 31.78125 66.40625 
Q 24.171875 66.40625 20.328125 58.90625 
Q 16.5 51.421875 16.5 36.375 
Q 16.5 21.390625 20.328125 13.890625 
Q 24.171875 6.390625 31.78125 6.390625 
Q 39.453125 6.390625 43.28125 13.890625 
Q 47.125 21.390625 47.125 36.375 
Q 47.125 51.421875 43.28125 58.90625 
Q 39.453125 66.40625 31.78125 66.40625 
z
M 31.78125 74.21875 
Q 44.046875 74.21875 50.515625 64.515625 
Q 56.984375 54.828125 56.984375 36.375 
Q 56.984375 17.96875 50.515625 8.265625 
Q 44.046875 -1.421875 31.78125 -1.421875 
Q 19.53125 -1.421875 13.0625 8.265625 
Q 6.59375 17.96875 6.59375 36.375 
Q 6.59375 54.828125 13.0625 64.515625 
Q 19.53125 74.21875 31.78125 74.21875 
z
" id="DejaVuSans-48"/>
       </defs>
       <use xlink:href="#DejaVuSans-48"/>
      </g>
     </g>
    </g>
    <g id="xtick_2">
     <g id="line2d_2">
      <g>
       <use style="stroke:#000000;stroke-width:0.8;" x="218.888683" xlink:href="#mff7d56a91b" y="640.8"/>
      </g>
     </g>
     <g id="text_2">
      <!-- 20 -->
      <g transform="translate(212.526183 655.398438)scale(0.1 -0.1)">
       <defs>
        <path d="M 19.1875 8.296875 
L 53.609375 8.296875 
L 53.609375 0 
L 7.328125 0 
L 7.328125 8.296875 
Q 12.9375 14.109375 22.625 23.890625 
Q 32.328125 33.6875 34.8125 36.53125 
Q 39.546875 41.84375 41.421875 45.53125 
Q 43.3125 49.21875 43.3125 52.78125 
Q 43.3125 58.59375 39.234375 62.25 
Q 35.15625 65.921875 28.609375 65.921875 
Q 23.96875 65.921875 18.8125 64.3125 
Q 13.671875 62.703125 7.8125 59.421875 
L 7.8125 69.390625 
Q 13.765625 71.78125 18.9375 73 
Q 24.125 74.21875 28.421875 74.21875 
Q 39.75 74.21875 46.484375 68.546875 
Q 53.21875 62.890625 53.21875 53.421875 
Q 53.21875 48.921875 51.53125 44.890625 
Q 49.859375 40.875 45.40625 35.40625 
Q 44.1875 33.984375 37.640625 27.21875 
Q 31.109375 20.453125 19.1875 8.296875 
z
" id="DejaVuSans-50"/>
       </defs>
       <use xlink:href="#DejaVuSans-50"/>
       <use x="63.623047" xlink:href="#DejaVuSans-48"/>
      </g>
     </g>
    </g>
    <g id="xtick_3">
     <g id="line2d_3">
      <g>
       <use style="stroke:#000000;stroke-width:0.8;" x="322.413729" xlink:href="#mff7d56a91b" y="640.8"/>
      </g>
     </g>
     <g id="text_3">
      <!-- 40 -->
      <g transform="translate(316.051229 655.398438)scale(0.1 -0.1)">
       <defs>
        <path d="M 37.796875 64.3125 
L 12.890625 25.390625 
L 37.796875 25.390625 
z
M 35.203125 72.90625 
L 47.609375 72.90625 
L 47.609375 25.390625 
L 58.015625 25.390625 
L 58.015625 17.1875 
L 47.609375 17.1875 
L 47.609375 0 
L 37.796875 0 
L 37.796875 17.1875 
L 4.890625 17.1875 
L 4.890625 26.703125 
z
" id="DejaVuSans-52"/>
       </defs>
       <use xlink:href="#DejaVuSans-52"/>
       <use x="63.623047" xlink:href="#DejaVuSans-48"/>
      </g>
     </g>
    </g>
    <g id="xtick_4">
     <g id="line2d_4">
      <g>
       <use style="stroke:#000000;stroke-width:0.8;" x="425.938776" xlink:href="#mff7d56a91b" y="640.8"/>
      </g>
     </g>
     <g id="text_4">
      <!-- 60 -->
      <g transform="translate(419.576276 655.398438)scale(0.1 -0.1)">
       <defs>
        <path d="M 33.015625 40.375 
Q 26.375 40.375 22.484375 35.828125 
Q 18.609375 31.296875 18.609375 23.390625 
Q 18.609375 15.53125 22.484375 10.953125 
Q 26.375 6.390625 33.015625 6.390625 
Q 39.65625 6.390625 43.53125 10.953125 
Q 47.40625 15.53125 47.40625 23.390625 
Q 47.40625 31.296875 43.53125 35.828125 
Q 39.65625 40.375 33.015625 40.375 
z
M 52.59375 71.296875 
L 52.59375 62.3125 
Q 48.875 64.0625 45.09375 64.984375 
Q 41.3125 65.921875 37.59375 65.921875 
Q 27.828125 65.921875 22.671875 59.328125 
Q 17.53125 52.734375 16.796875 39.40625 
Q 19.671875 43.65625 24.015625 45.921875 
Q 28.375 48.1875 33.59375 48.1875 
Q 44.578125 48.1875 50.953125 41.515625 
Q 57.328125 34.859375 57.328125 23.390625 
Q 57.328125 12.15625 50.6875 5.359375 
Q 44.046875 -1.421875 33.015625 -1.421875 
Q 20.359375 -1.421875 13.671875 8.265625 
Q 6.984375 17.96875 6.984375 36.375 
Q 6.984375 53.65625 15.1875 63.9375 
Q 23.390625 74.21875 37.203125 74.21875 
Q 40.921875 74.21875 44.703125 73.484375 
Q 48.484375 72.75 52.59375 71.296875 
z
" id="DejaVuSans-54"/>
       </defs>
       <use xlink:href="#DejaVuSans-54"/>
       <use x="63.623047" xlink:href="#DejaVuSans-48"/>
      </g>
     </g>
    </g>
    <g id="xtick_5">
     <g id="line2d_5">
      <g>
       <use style="stroke:#000000;stroke-width:0.8;" x="529.463822" xlink:href="#mff7d56a91b" y="640.8"/>
      </g>
     </g>
     <g id="text_5">
      <!-- 80 -->
      <g transform="translate(523.101322 655.398438)scale(0.1 -0.1)">
       <defs>
        <path d="M 31.78125 34.625 
Q 24.75 34.625 20.71875 30.859375 
Q 16.703125 27.09375 16.703125 20.515625 
Q 16.703125 13.921875 20.71875 10.15625 
Q 24.75 6.390625 31.78125 6.390625 
Q 38.8125 6.390625 42.859375 10.171875 
Q 46.921875 13.96875 46.921875 20.515625 
Q 46.921875 27.09375 42.890625 30.859375 
Q 38.875 34.625 31.78125 34.625 
z
M 21.921875 38.8125 
Q 15.578125 40.375 12.03125 44.71875 
Q 8.5 49.078125 8.5 55.328125 
Q 8.5 64.0625 14.71875 69.140625 
Q 20.953125 74.21875 31.78125 74.21875 
Q 42.671875 74.21875 48.875 69.140625 
Q 55.078125 64.0625 55.078125 55.328125 
Q 55.078125 49.078125 51.53125 44.71875 
Q 48 40.375 41.703125 38.8125 
Q 48.828125 37.15625 52.796875 32.3125 
Q 56.78125 27.484375 56.78125 20.515625 
Q 56.78125 9.90625 50.3125 4.234375 
Q 43.84375 -1.421875 31.78125 -1.421875 
Q 19.734375 -1.421875 13.25 4.234375 
Q 6.78125 9.90625 6.78125 20.515625 
Q 6.78125 27.484375 10.78125 32.3125 
Q 14.796875 37.15625 21.921875 38.8125 
z
M 18.3125 54.390625 
Q 18.3125 48.734375 21.84375 45.5625 
Q 25.390625 42.390625 31.78125 42.390625 
Q 38.140625 42.390625 41.71875 45.5625 
Q 45.3125 48.734375 45.3125 54.390625 
Q 45.3125 60.0625 41.71875 63.234375 
Q 38.140625 66.40625 31.78125 66.40625 
Q 25.390625 66.40625 21.84375 63.234375 
Q 18.3125 60.0625 18.3125 54.390625 
z
" id="DejaVuSans-56"/>
       </defs>
       <use xlink:href="#DejaVuSans-56"/>
       <use x="63.623047" xlink:href="#DejaVuSans-48"/>
      </g>
     </g>
    </g>
    <g id="xtick_6">
     <g id="line2d_6">
      <g>
       <use style="stroke:#000000;stroke-width:0.8;" x="632.988868" xlink:href="#mff7d56a91b" y="640.8"/>
      </g>
     </g>
     <g id="text_6">
      <!-- 100 -->
      <g transform="translate(623.445118 655.398438)scale(0.1 -0.1)">
       <defs>
        <path d="M 12.40625 8.296875 
L 28.515625 8.296875 
L 28.515625 63.921875 
L 10.984375 60.40625 
L 10.984375 69.390625 
L 28.421875 72.90625 
L 38.28125 72.90625 
L 38.28125 8.296875 
L 54.390625 8.296875 
L 54.390625 0 
L 12.40625 0 
z
" id="DejaVuSans-49"/>
       </defs>
       <use xlink:href="#DejaVuSans-49"/>
       <use x="63.623047" xlink:href="#DejaVuSans-48"/>
       <use x="127.246094" xlink:href="#DejaVuSans-48"/>
      </g>
     </g>
    </g>
    <g id="text_7">
     <!-- Corridas -->
     <g transform="translate(348.19375 669.076563)scale(0.1 -0.1)">
      <defs>
       <path d="M 64.40625 67.28125 
L 64.40625 56.890625 
Q 59.421875 61.53125 53.78125 63.8125 
Q 48.140625 66.109375 41.796875 66.109375 
Q 29.296875 66.109375 22.65625 58.46875 
Q 16.015625 50.828125 16.015625 36.375 
Q 16.015625 21.96875 22.65625 14.328125 
Q 29.296875 6.6875 41.796875 6.6875 
Q 48.140625 6.6875 53.78125 8.984375 
Q 59.421875 11.28125 64.40625 15.921875 
L 64.40625 5.609375 
Q 59.234375 2.09375 53.4375 0.328125 
Q 47.65625 -1.421875 41.21875 -1.421875 
Q 24.65625 -1.421875 15.125 8.703125 
Q 5.609375 18.84375 5.609375 36.375 
Q 5.609375 53.953125 15.125 64.078125 
Q 24.65625 74.21875 41.21875 74.21875 
Q 47.75 74.21875 53.53125 72.484375 
Q 59.328125 70.75 64.40625 67.28125 
z
" id="DejaVuSans-67"/>
       <path d="M 30.609375 48.390625 
Q 23.390625 48.390625 19.1875 42.75 
Q 14.984375 37.109375 14.984375 27.296875 
Q 14.984375 17.484375 19.15625 11.84375 
Q 23.34375 6.203125 30.609375 6.203125 
Q 37.796875 6.203125 41.984375 11.859375 
Q 46.1875 17.53125 46.1875 27.296875 
Q 46.1875 37.015625 41.984375 42.703125 
Q 37.796875 48.390625 30.609375 48.390625 
z
M 30.609375 56 
Q 42.328125 56 49.015625 48.375 
Q 55.71875 40.765625 55.71875 27.296875 
Q 55.71875 13.875 49.015625 6.21875 
Q 42.328125 -1.421875 30.609375 -1.421875 
Q 18.84375 -1.421875 12.171875 6.21875 
Q 5.515625 13.875 5.515625 27.296875 
Q 5.515625 40.765625 12.171875 48.375 
Q 18.84375 56 30.609375 56 
z
" id="DejaVuSans-111"/>
       <path d="M 41.109375 46.296875 
Q 39.59375 47.171875 37.8125 47.578125 
Q 36.03125 48 33.890625 48 
Q 26.265625 48 22.1875 43.046875 
Q 18.109375 38.09375 18.109375 28.8125 
L 18.109375 0 
L 9.078125 0 
L 9.078125 54.6875 
L 18.109375 54.6875 
L 18.109375 46.1875 
Q 20.953125 51.171875 25.484375 53.578125 
Q 30.03125 56 36.53125 56 
Q 37.453125 56 38.578125 55.875 
Q 39.703125 55.765625 41.0625 55.515625 
z
" id="DejaVuSans-114"/>
       <path d="M 9.421875 54.6875 
L 18.40625 54.6875 
L 18.40625 0 
L 9.421875 0 
z
M 9.421875 75.984375 
L 18.40625 75.984375 
L 18.40625 64.59375 
L 9.421875 64.59375 
z
" id="DejaVuSans-105"/>
       <path d="M 45.40625 46.390625 
L 45.40625 75.984375 
L 54.390625 75.984375 
L 54.390625 0 
L 45.40625 0 
L 45.40625 8.203125 
Q 42.578125 3.328125 38.25 0.953125 
Q 33.9375 -1.421875 27.875 -1.421875 
Q 17.96875 -1.421875 11.734375 6.484375 
Q 5.515625 14.40625 5.515625 27.296875 
Q 5.515625 40.1875 11.734375 48.09375 
Q 17.96875 56 27.875 56 
Q 33.9375 56 38.25 53.625 
Q 42.578125 51.265625 45.40625 46.390625 
z
M 14.796875 27.296875 
Q 14.796875 17.390625 18.875 11.75 
Q 22.953125 6.109375 30.078125 6.109375 
Q 37.203125 6.109375 41.296875 11.75 
Q 45.40625 17.390625 45.40625 27.296875 
Q 45.40625 37.203125 41.296875 42.84375 
Q 37.203125 48.484375 30.078125 48.484375 
Q 22.953125 48.484375 18.875 42.84375 
Q 14.796875 37.203125 14.796875 27.296875 
z
" id="DejaVuSans-100"/>
       <path d="M 34.28125 27.484375 
Q 23.390625 27.484375 19.1875 25 
Q 14.984375 22.515625 14.984375 16.5 
Q 14.984375 11.71875 18.140625 8.90625 
Q 21.296875 6.109375 26.703125 6.109375 
Q 34.1875 6.109375 38.703125 11.40625 
Q 43.21875 16.703125 43.21875 25.484375 
L 43.21875 27.484375 
z
M 52.203125 31.203125 
L 52.203125 0 
L 43.21875 0 
L 43.21875 8.296875 
Q 40.140625 3.328125 35.546875 0.953125 
Q 30.953125 -1.421875 24.3125 -1.421875 
Q 15.921875 -1.421875 10.953125 3.296875 
Q 6 8.015625 6 15.921875 
Q 6 25.140625 12.171875 29.828125 
Q 18.359375 34.515625 30.609375 34.515625 
L 43.21875 34.515625 
L 43.21875 35.40625 
Q 43.21875 41.609375 39.140625 45 
Q 35.0625 48.390625 27.6875 48.390625 
Q 23 48.390625 18.546875 47.265625 
Q 14.109375 46.140625 10.015625 43.890625 
L 10.015625 52.203125 
Q 14.9375 54.109375 19.578125 55.046875 
Q 24.21875 56 28.609375 56 
Q 40.484375 56 46.34375 49.84375 
Q 52.203125 43.703125 52.203125 31.203125 
z
" id="DejaVuSans-97"/>
       <path d="M 44.28125 53.078125 
L 44.28125 44.578125 
Q 40.484375 46.53125 36.375 47.5 
Q 32.28125 48.484375 27.875 48.484375 
Q 21.1875 48.484375 17.84375 46.4375 
Q 14.5 44.390625 14.5 40.28125 
Q 14.5 37.15625 16.890625 35.375 
Q 19.28125 33.59375 26.515625 31.984375 
L 29.59375 31.296875 
Q 39.15625 29.25 43.1875 25.515625 
Q 47.21875 21.78125 47.21875 15.09375 
Q 47.21875 7.46875 41.1875 3.015625 
Q 35.15625 -1.421875 24.609375 -1.421875 
Q 20.21875 -1.421875 15.453125 -0.5625 
Q 10.6875 0.296875 5.421875 2 
L 5.421875 11.28125 
Q 10.40625 8.6875 15.234375 7.390625 
Q 20.0625 6.109375 24.8125 6.109375 
Q 31.15625 6.109375 34.5625 8.28125 
Q 37.984375 10.453125 37.984375 14.40625 
Q 37.984375 18.0625 35.515625 20.015625 
Q 33.0625 21.96875 24.703125 23.78125 
L 21.578125 24.515625 
Q 13.234375 26.265625 9.515625 29.90625 
Q 5.8125 33.546875 5.8125 39.890625 
Q 5.8125 47.609375 11.28125 51.796875 
Q 16.75 56 26.8125 56 
Q 31.78125 56 36.171875 55.265625 
Q 40.578125 54.546875 44.28125 53.078125 
z
" id="DejaVuSans-115"/>
      </defs>
      <use xlink:href="#DejaVuSans-67"/>
      <use x="69.824219" xlink:href="#DejaVuSans-111"/>
      <use x="131.005859" xlink:href="#DejaVuSans-114"/>
      <use x="170.369141" xlink:href="#DejaVuSans-114"/>
      <use x="211.482422" xlink:href="#DejaVuSans-105"/>
      <use x="239.265625" xlink:href="#DejaVuSans-100"/>
      <use x="302.742188" xlink:href="#DejaVuSans-97"/>
      <use x="364.021484" xlink:href="#DejaVuSans-115"/>
     </g>
    </g>
   </g>
   <g id="matplotlib.axis_2">
    <g id="ytick_1">
     <g id="line2d_7">
      <defs>
       <path d="M 0 0 
L -3.5 0 
" id="mfa634a6ca1" style="stroke:#000000;stroke-width:0.8;"/>
      </defs>
      <g>
       <use style="stroke:#000000;stroke-width:0.8;" x="90" xlink:href="#mfa634a6ca1" y="534.257894"/>
      </g>
     </g>
     <g id="text_8">
      <!-- 0.2 -->
      <g transform="translate(67.096875 538.057112)scale(0.1 -0.1)">
       <defs>
        <path d="M 10.6875 12.40625 
L 21 12.40625 
L 21 0 
L 10.6875 0 
z
" id="DejaVuSans-46"/>
       </defs>
       <use xlink:href="#DejaVuSans-48"/>
       <use x="63.623047" xlink:href="#DejaVuSans-46"/>
       <use x="95.410156" xlink:href="#DejaVuSans-50"/>
      </g>
     </g>
    </g>
    <g id="ytick_2">
     <g id="line2d_8">
      <g>
       <use style="stroke:#000000;stroke-width:0.8;" x="90" xlink:href="#mfa634a6ca1" y="420.621584"/>
      </g>
     </g>
     <g id="text_9">
      <!-- 0.4 -->
      <g transform="translate(67.096875 424.420802)scale(0.1 -0.1)">
       <use xlink:href="#DejaVuSans-48"/>
       <use x="63.623047" xlink:href="#DejaVuSans-46"/>
       <use x="95.410156" xlink:href="#DejaVuSans-52"/>
      </g>
     </g>
    </g>
    <g id="ytick_3">
     <g id="line2d_9">
      <g>
       <use style="stroke:#000000;stroke-width:0.8;" x="90" xlink:href="#mfa634a6ca1" y="306.985273"/>
      </g>
     </g>
     <g id="text_10">
      <!-- 0.6 -->
      <g transform="translate(67.096875 310.784492)scale(0.1 -0.1)">
       <use xlink:href="#DejaVuSans-48"/>
       <use x="63.623047" xlink:href="#DejaVuSans-46"/>
       <use x="95.410156" xlink:href="#DejaVuSans-54"/>
      </g>
     </g>
    </g>
    <g id="ytick_4">
     <g id="line2d_10">
      <g>
       <use style="stroke:#000000;stroke-width:0.8;" x="90" xlink:href="#mfa634a6ca1" y="193.348963"/>
      </g>
     </g>
     <g id="text_11">
      <!-- 0.8 -->
      <g transform="translate(67.096875 197.148182)scale(0.1 -0.1)">
       <use xlink:href="#DejaVuSans-48"/>
       <use x="63.623047" xlink:href="#DejaVuSans-46"/>
       <use x="95.410156" xlink:href="#DejaVuSans-56"/>
      </g>
     </g>
    </g>
    <g id="text_12">
     <!-- Valor -->
     <g transform="translate(61.017187 376.200781)rotate(-90)scale(0.1 -0.1)">
      <defs>
       <path d="M 28.609375 0 
L 0.78125 72.90625 
L 11.078125 72.90625 
L 34.1875 11.53125 
L 57.328125 72.90625 
L 67.578125 72.90625 
L 39.796875 0 
z
" id="DejaVuSans-86"/>
       <path d="M 9.421875 75.984375 
L 18.40625 75.984375 
L 18.40625 0 
L 9.421875 0 
z
" id="DejaVuSans-108"/>
      </defs>
      <use xlink:href="#DejaVuSans-86"/>
      <use x="60.658203" xlink:href="#DejaVuSans-97"/>
      <use x="121.9375" xlink:href="#DejaVuSans-108"/>
      <use x="149.720703" xlink:href="#DejaVuSans-111"/>
      <use x="210.902344" xlink:href="#DejaVuSans-114"/>
     </g>
    </g>
   </g>
   <g id="line2d_11">
    <defs>
     <path d="M 0 3 
C 0.795609 3 1.55874 2.683901 2.12132 2.12132 
C 2.683901 1.55874 3 0.795609 3 0 
C 3 -0.795609 2.683901 -1.55874 2.12132 -2.12132 
C 1.55874 -2.683901 0.795609 -3 0 -3 
C -0.795609 -3 -1.55874 -2.683901 -2.12132 -2.12132 
C -2.683901 -1.55874 -3 -0.795609 -3 0 
C -3 0.795609 -2.683901 1.55874 -2.12132 2.12132 
C -1.55874 2.683901 -0.795609 3 0 3 
z
" id="mdf8fd397b8" style="stroke:#0000ff;stroke-opacity:0.15;"/>
    </defs>
    <g clip-path="url(#p9945c26d9b)">
     <use style="fill:#0000ff;fill-opacity:0.15;stroke:#0000ff;stroke-opacity:0.15;" x="115.363636" xlink:href="#mdf8fd397b8" y="208.439504"/>
    </g>
   </g>
   <g id="line2d_12">
    <g clip-path="url(#p9945c26d9b)">
     <use style="fill:#0000ff;fill-opacity:0.15;stroke:#0000ff;stroke-opacity:0.15;" x="120.539889" xlink:href="#mdf8fd397b8" y="339.019374"/>
    </g>
   </g>
   <g id="line2d_13">
    <g clip-path="url(#p9945c26d9b)">
     <use style="fill:#0000ff;fill-opacity:0.15;stroke:#0000ff;stroke-opacity:0.15;" x="125.716141" xlink:href="#mdf8fd397b8" y="474.5211"/>
    </g>
   </g>
   <g id="line2d_14">
    <g clip-path="url(#p9945c26d9b)">
     <use style="fill:#0000ff;fill-opacity:0.15;stroke:#0000ff;stroke-opacity:0.15;" x="130.892393" xlink:href="#mdf8fd397b8" y="282.935937"/>
    </g>
   </g>
   <g id="line2d_15">
    <g clip-path="url(#p9945c26d9b)">
     <use style="fill:#0000ff;fill-opacity:0.15;stroke:#0000ff;stroke-opacity:0.15;" x="136.068646" xlink:href="#mdf8fd397b8" y="123.843032"/>
    </g>
   </g>
   <g id="line2d_16">
    <g clip-path="url(#p9945c26d9b)">
     <use style="fill:#0000ff;fill-opacity:0.15;stroke:#0000ff;stroke-opacity:0.15;" x="141.244898" xlink:href="#mdf8fd397b8" y="513.737494"/>
    </g>
   </g>
   <g id="line2d_17">
    <g clip-path="url(#p9945c26d9b)">
     <use style="fill:#0000ff;fill-opacity:0.15;stroke:#0000ff;stroke-opacity:0.15;" x="146.42115" xlink:href="#mdf8fd397b8" y="372.706077"/>
    </g>
   </g>
   <g id="line2d_18">
    <g clip-path="url(#p9945c26d9b)">
     <use style="fill:#0000ff;fill-opacity:0.15;stroke:#0000ff;stroke-opacity:0.15;" x="151.597403" xlink:href="#mdf8fd397b8" y="542.820538"/>
    </g>
   </g>
   <g id="line2d_19">
    <g clip-path="url(#p9945c26d9b)">
     <use style="fill:#0000ff;fill-opacity:0.15;stroke:#0000ff;stroke-opacity:0.15;" x="156.773655" xlink:href="#mdf8fd397b8" y="571.849181"/>
    </g>
   </g>
   <g id="line2d_20">
    <g clip-path="url(#p9945c26d9b)">
     <use style="fill:#0000ff;fill-opacity:0.15;stroke:#0000ff;stroke-opacity:0.15;" x="161.949907" xlink:href="#mdf8fd397b8" y="111.263318"/>
    </g>
   </g>
   <g id="line2d_21">
    <g clip-path="url(#p9945c26d9b)">
     <use style="fill:#0000ff;fill-opacity:0.15;stroke:#0000ff;stroke-opacity:0.15;" x="167.12616" xlink:href="#mdf8fd397b8" y="629.30534"/>
    </g>
   </g>
   <g id="line2d_22">
    <g clip-path="url(#p9945c26d9b)">
     <use style="fill:#0000ff;fill-opacity:0.15;stroke:#0000ff;stroke-opacity:0.15;" x="172.302412" xlink:href="#mdf8fd397b8" y="602.535451"/>
    </g>
   </g>
   <g id="line2d_23">
    <g clip-path="url(#p9945c26d9b)">
     <use style="fill:#0000ff;fill-opacity:0.15;stroke:#0000ff;stroke-opacity:0.15;" x="177.478664" xlink:href="#mdf8fd397b8" y="295.607982"/>
    </g>
   </g>
   <g id="line2d_24">
    <g clip-path="url(#p9945c26d9b)">
     <use style="fill:#0000ff;fill-opacity:0.15;stroke:#0000ff;stroke-opacity:0.15;" x="182.654917" xlink:href="#mdf8fd397b8" y="633.485977"/>
    </g>
   </g>
   <g id="line2d_25">
    <g clip-path="url(#p9945c26d9b)">
     <use style="fill:#0000ff;fill-opacity:0.15;stroke:#0000ff;stroke-opacity:0.15;" x="187.831169" xlink:href="#mdf8fd397b8" y="355.779045"/>
    </g>
   </g>
   <g id="line2d_26">
    <g clip-path="url(#p9945c26d9b)">
     <use style="fill:#0000ff;fill-opacity:0.15;stroke:#0000ff;stroke-opacity:0.15;" x="193.007421" xlink:href="#mdf8fd397b8" y="551.729331"/>
    </g>
   </g>
   <g id="line2d_27">
    <g clip-path="url(#p9945c26d9b)">
     <use style="fill:#0000ff;fill-opacity:0.15;stroke:#0000ff;stroke-opacity:0.15;" x="198.183673" xlink:href="#mdf8fd397b8" y="86.4"/>
    </g>
   </g>
   <g id="line2d_28">
    <g clip-path="url(#p9945c26d9b)">
     <use style="fill:#0000ff;fill-opacity:0.15;stroke:#0000ff;stroke-opacity:0.15;" x="203.359926" xlink:href="#mdf8fd397b8" y="284.047406"/>
    </g>
   </g>
   <g id="line2d_29">
    <g clip-path="url(#p9945c26d9b)">
     <use style="fill:#0000ff;fill-opacity:0.15;stroke:#0000ff;stroke-opacity:0.15;" x="208.536178" xlink:href="#mdf8fd397b8" y="210.303291"/>
    </g>
   </g>
   <g id="line2d_30">
    <g clip-path="url(#p9945c26d9b)">
     <use style="fill:#0000ff;fill-opacity:0.15;stroke:#0000ff;stroke-opacity:0.15;" x="213.71243" xlink:href="#mdf8fd397b8" y="264.24655"/>
    </g>
   </g>
   <g id="line2d_31">
    <g clip-path="url(#p9945c26d9b)">
     <use style="fill:#0000ff;fill-opacity:0.15;stroke:#0000ff;stroke-opacity:0.15;" x="218.888683" xlink:href="#mdf8fd397b8" y="613.053193"/>
    </g>
   </g>
   <g id="line2d_32">
    <g clip-path="url(#p9945c26d9b)">
     <use style="fill:#0000ff;fill-opacity:0.15;stroke:#0000ff;stroke-opacity:0.15;" x="224.064935" xlink:href="#mdf8fd397b8" y="229.770334"/>
    </g>
   </g>
   <g id="line2d_33">
    <g clip-path="url(#p9945c26d9b)">
     <use style="fill:#0000ff;fill-opacity:0.15;stroke:#0000ff;stroke-opacity:0.15;" x="229.241187" xlink:href="#mdf8fd397b8" y="529.498071"/>
    </g>
   </g>
   <g id="line2d_34">
    <g clip-path="url(#p9945c26d9b)">
     <use style="fill:#0000ff;fill-opacity:0.15;stroke:#0000ff;stroke-opacity:0.15;" x="234.41744" xlink:href="#mdf8fd397b8" y="635.73918"/>
    </g>
   </g>
   <g id="line2d_35">
    <g clip-path="url(#p9945c26d9b)">
     <use style="fill:#0000ff;fill-opacity:0.15;stroke:#0000ff;stroke-opacity:0.15;" x="239.593692" xlink:href="#mdf8fd397b8" y="531.636047"/>
    </g>
   </g>
   <g id="line2d_36">
    <g clip-path="url(#p9945c26d9b)">
     <use style="fill:#0000ff;fill-opacity:0.15;stroke:#0000ff;stroke-opacity:0.15;" x="244.769944" xlink:href="#mdf8fd397b8" y="207.677036"/>
    </g>
   </g>
   <g id="line2d_37">
    <g clip-path="url(#p9945c26d9b)">
     <use style="fill:#0000ff;fill-opacity:0.15;stroke:#0000ff;stroke-opacity:0.15;" x="249.946197" xlink:href="#mdf8fd397b8" y="313.613061"/>
    </g>
   </g>
   <g id="line2d_38">
    <g clip-path="url(#p9945c26d9b)">
     <use style="fill:#0000ff;fill-opacity:0.15;stroke:#0000ff;stroke-opacity:0.15;" x="255.122449" xlink:href="#mdf8fd397b8" y="615.545815"/>
    </g>
   </g>
   <g id="line2d_39">
    <g clip-path="url(#p9945c26d9b)">
     <use style="fill:#0000ff;fill-opacity:0.15;stroke:#0000ff;stroke-opacity:0.15;" x="260.298701" xlink:href="#mdf8fd397b8" y="441.883351"/>
    </g>
   </g>
   <g id="line2d_40">
    <g clip-path="url(#p9945c26d9b)">
     <use style="fill:#0000ff;fill-opacity:0.15;stroke:#0000ff;stroke-opacity:0.15;" x="265.474954" xlink:href="#mdf8fd397b8" y="299.421649"/>
    </g>
   </g>
   <g id="line2d_41">
    <g clip-path="url(#p9945c26d9b)">
     <use style="fill:#0000ff;fill-opacity:0.15;stroke:#0000ff;stroke-opacity:0.15;" x="270.651206" xlink:href="#mdf8fd397b8" y="499.972913"/>
    </g>
   </g>
   <g id="line2d_42">
    <g clip-path="url(#p9945c26d9b)">
     <use style="fill:#0000ff;fill-opacity:0.15;stroke:#0000ff;stroke-opacity:0.15;" x="275.827458" xlink:href="#mdf8fd397b8" y="111.932752"/>
    </g>
   </g>
   <g id="line2d_43">
    <g clip-path="url(#p9945c26d9b)">
     <use style="fill:#0000ff;fill-opacity:0.15;stroke:#0000ff;stroke-opacity:0.15;" x="281.003711" xlink:href="#mdf8fd397b8" y="632.065749"/>
    </g>
   </g>
   <g id="line2d_44">
    <g clip-path="url(#p9945c26d9b)">
     <use style="fill:#0000ff;fill-opacity:0.15;stroke:#0000ff;stroke-opacity:0.15;" x="286.179963" xlink:href="#mdf8fd397b8" y="258.773826"/>
    </g>
   </g>
   <g id="line2d_45">
    <g clip-path="url(#p9945c26d9b)">
     <use style="fill:#0000ff;fill-opacity:0.15;stroke:#0000ff;stroke-opacity:0.15;" x="291.356215" xlink:href="#mdf8fd397b8" y="580.411179"/>
    </g>
   </g>
   <g id="line2d_46">
    <g clip-path="url(#p9945c26d9b)">
     <use style="fill:#0000ff;fill-opacity:0.15;stroke:#0000ff;stroke-opacity:0.15;" x="296.532468" xlink:href="#mdf8fd397b8" y="507.772833"/>
    </g>
   </g>
   <g id="line2d_47">
    <g clip-path="url(#p9945c26d9b)">
     <use style="fill:#0000ff;fill-opacity:0.15;stroke:#0000ff;stroke-opacity:0.15;" x="301.70872" xlink:href="#mdf8fd397b8" y="597.968637"/>
    </g>
   </g>
   <g id="line2d_48">
    <g clip-path="url(#p9945c26d9b)">
     <use style="fill:#0000ff;fill-opacity:0.15;stroke:#0000ff;stroke-opacity:0.15;" x="306.884972" xlink:href="#mdf8fd397b8" y="620.767645"/>
    </g>
   </g>
   <g id="line2d_49">
    <g clip-path="url(#p9945c26d9b)">
     <use style="fill:#0000ff;fill-opacity:0.15;stroke:#0000ff;stroke-opacity:0.15;" x="312.061224" xlink:href="#mdf8fd397b8" y="395.768178"/>
    </g>
   </g>
   <g id="line2d_50">
    <g clip-path="url(#p9945c26d9b)">
     <use style="fill:#0000ff;fill-opacity:0.15;stroke:#0000ff;stroke-opacity:0.15;" x="317.237477" xlink:href="#mdf8fd397b8" y="361.014649"/>
    </g>
   </g>
   <g id="line2d_51">
    <g clip-path="url(#p9945c26d9b)">
     <use style="fill:#0000ff;fill-opacity:0.15;stroke:#0000ff;stroke-opacity:0.15;" x="322.413729" xlink:href="#mdf8fd397b8" y="243.946516"/>
    </g>
   </g>
   <g id="line2d_52">
    <g clip-path="url(#p9945c26d9b)">
     <use style="fill:#0000ff;fill-opacity:0.15;stroke:#0000ff;stroke-opacity:0.15;" x="327.589981" xlink:href="#mdf8fd397b8" y="394.762268"/>
    </g>
   </g>
   <g id="line2d_53">
    <g clip-path="url(#p9945c26d9b)">
     <use style="fill:#0000ff;fill-opacity:0.15;stroke:#0000ff;stroke-opacity:0.15;" x="332.766234" xlink:href="#mdf8fd397b8" y="100.15556"/>
    </g>
   </g>
   <g id="line2d_54">
    <g clip-path="url(#p9945c26d9b)">
     <use style="fill:#0000ff;fill-opacity:0.15;stroke:#0000ff;stroke-opacity:0.15;" x="337.942486" xlink:href="#mdf8fd397b8" y="105.246676"/>
    </g>
   </g>
   <g id="line2d_55">
    <g clip-path="url(#p9945c26d9b)">
     <use style="fill:#0000ff;fill-opacity:0.15;stroke:#0000ff;stroke-opacity:0.15;" x="343.118738" xlink:href="#mdf8fd397b8" y="249.668911"/>
    </g>
   </g>
   <g id="line2d_56">
    <g clip-path="url(#p9945c26d9b)">
     <use style="fill:#0000ff;fill-opacity:0.15;stroke:#0000ff;stroke-opacity:0.15;" x="348.294991" xlink:href="#mdf8fd397b8" y="563.542998"/>
    </g>
   </g>
   <g id="line2d_57">
    <g clip-path="url(#p9945c26d9b)">
     <use style="fill:#0000ff;fill-opacity:0.15;stroke:#0000ff;stroke-opacity:0.15;" x="353.471243" xlink:href="#mdf8fd397b8" y="579.57257"/>
    </g>
   </g>
   <g id="line2d_58">
    <g clip-path="url(#p9945c26d9b)">
     <use style="fill:#0000ff;fill-opacity:0.15;stroke:#0000ff;stroke-opacity:0.15;" x="358.647495" xlink:href="#mdf8fd397b8" y="582.893396"/>
    </g>
   </g>
   <g id="line2d_59">
    <g clip-path="url(#p9945c26d9b)">
     <use style="fill:#0000ff;fill-opacity:0.15;stroke:#0000ff;stroke-opacity:0.15;" x="363.823748" xlink:href="#mdf8fd397b8" y="96.07963"/>
    </g>
   </g>
   <g id="line2d_60">
    <g clip-path="url(#p9945c26d9b)">
     <use style="fill:#0000ff;fill-opacity:0.15;stroke:#0000ff;stroke-opacity:0.15;" x="369" xlink:href="#mdf8fd397b8" y="320.212041"/>
    </g>
   </g>
   <g id="line2d_61">
    <g clip-path="url(#p9945c26d9b)">
     <use style="fill:#0000ff;fill-opacity:0.15;stroke:#0000ff;stroke-opacity:0.15;" x="374.176252" xlink:href="#mdf8fd397b8" y="638.364572"/>
    </g>
   </g>
   <g id="line2d_62">
    <g clip-path="url(#p9945c26d9b)">
     <use style="fill:#0000ff;fill-opacity:0.15;stroke:#0000ff;stroke-opacity:0.15;" x="379.352505" xlink:href="#mdf8fd397b8" y="295.675024"/>
    </g>
   </g>
   <g id="line2d_63">
    <g clip-path="url(#p9945c26d9b)">
     <use style="fill:#0000ff;fill-opacity:0.15;stroke:#0000ff;stroke-opacity:0.15;" x="384.528757" xlink:href="#mdf8fd397b8" y="172.402033"/>
    </g>
   </g>
   <g id="line2d_64">
    <g clip-path="url(#p9945c26d9b)">
     <use style="fill:#0000ff;fill-opacity:0.15;stroke:#0000ff;stroke-opacity:0.15;" x="389.705009" xlink:href="#mdf8fd397b8" y="380.494081"/>
    </g>
   </g>
   <g id="line2d_65">
    <g clip-path="url(#p9945c26d9b)">
     <use style="fill:#0000ff;fill-opacity:0.15;stroke:#0000ff;stroke-opacity:0.15;" x="394.881262" xlink:href="#mdf8fd397b8" y="118.488778"/>
    </g>
   </g>
   <g id="line2d_66">
    <g clip-path="url(#p9945c26d9b)">
     <use style="fill:#0000ff;fill-opacity:0.15;stroke:#0000ff;stroke-opacity:0.15;" x="400.057514" xlink:href="#mdf8fd397b8" y="524.044495"/>
    </g>
   </g>
   <g id="line2d_67">
    <g clip-path="url(#p9945c26d9b)">
     <use style="fill:#0000ff;fill-opacity:0.15;stroke:#0000ff;stroke-opacity:0.15;" x="405.233766" xlink:href="#mdf8fd397b8" y="129.656226"/>
    </g>
   </g>
   <g id="line2d_68">
    <g clip-path="url(#p9945c26d9b)">
     <use style="fill:#0000ff;fill-opacity:0.15;stroke:#0000ff;stroke-opacity:0.15;" x="410.410019" xlink:href="#mdf8fd397b8" y="509.642431"/>
    </g>
   </g>
   <g id="line2d_69">
    <g clip-path="url(#p9945c26d9b)">
     <use style="fill:#0000ff;fill-opacity:0.15;stroke:#0000ff;stroke-opacity:0.15;" x="415.586271" xlink:href="#mdf8fd397b8" y="142.289847"/>
    </g>
   </g>
   <g id="line2d_70">
    <g clip-path="url(#p9945c26d9b)">
     <use style="fill:#0000ff;fill-opacity:0.15;stroke:#0000ff;stroke-opacity:0.15;" x="420.762523" xlink:href="#mdf8fd397b8" y="207.90384"/>
    </g>
   </g>
   <g id="line2d_71">
    <g clip-path="url(#p9945c26d9b)">
     <use style="fill:#0000ff;fill-opacity:0.15;stroke:#0000ff;stroke-opacity:0.15;" x="425.938776" xlink:href="#mdf8fd397b8" y="176.93165"/>
    </g>
   </g>
   <g id="line2d_72">
    <g clip-path="url(#p9945c26d9b)">
     <use style="fill:#0000ff;fill-opacity:0.15;stroke:#0000ff;stroke-opacity:0.15;" x="431.115028" xlink:href="#mdf8fd397b8" y="380.822609"/>
    </g>
   </g>
   <g id="line2d_73">
    <g clip-path="url(#p9945c26d9b)">
     <use style="fill:#0000ff;fill-opacity:0.15;stroke:#0000ff;stroke-opacity:0.15;" x="436.29128" xlink:href="#mdf8fd397b8" y="617.340431"/>
    </g>
   </g>
   <g id="line2d_74">
    <g clip-path="url(#p9945c26d9b)">
     <use style="fill:#0000ff;fill-opacity:0.15;stroke:#0000ff;stroke-opacity:0.15;" x="441.467532" xlink:href="#mdf8fd397b8" y="160.616465"/>
    </g>
   </g>
   <g id="line2d_75">
    <g clip-path="url(#p9945c26d9b)">
     <use style="fill:#0000ff;fill-opacity:0.15;stroke:#0000ff;stroke-opacity:0.15;" x="446.643785" xlink:href="#mdf8fd397b8" y="115.941241"/>
    </g>
   </g>
   <g id="line2d_76">
    <g clip-path="url(#p9945c26d9b)">
     <use style="fill:#0000ff;fill-opacity:0.15;stroke:#0000ff;stroke-opacity:0.15;" x="451.820037" xlink:href="#mdf8fd397b8" y="379.155366"/>
    </g>
   </g>
   <g id="line2d_77">
    <g clip-path="url(#p9945c26d9b)">
     <use style="fill:#0000ff;fill-opacity:0.15;stroke:#0000ff;stroke-opacity:0.15;" x="456.996289" xlink:href="#mdf8fd397b8" y="386.938667"/>
    </g>
   </g>
   <g id="line2d_78">
    <g clip-path="url(#p9945c26d9b)">
     <use style="fill:#0000ff;fill-opacity:0.15;stroke:#0000ff;stroke-opacity:0.15;" x="462.172542" xlink:href="#mdf8fd397b8" y="109.553887"/>
    </g>
   </g>
   <g id="line2d_79">
    <g clip-path="url(#p9945c26d9b)">
     <use style="fill:#0000ff;fill-opacity:0.15;stroke:#0000ff;stroke-opacity:0.15;" x="467.348794" xlink:href="#mdf8fd397b8" y="550.163303"/>
    </g>
   </g>
   <g id="line2d_80">
    <g clip-path="url(#p9945c26d9b)">
     <use style="fill:#0000ff;fill-opacity:0.15;stroke:#0000ff;stroke-opacity:0.15;" x="472.525046" xlink:href="#mdf8fd397b8" y="446.363511"/>
    </g>
   </g>
   <g id="line2d_81">
    <g clip-path="url(#p9945c26d9b)">
     <use style="fill:#0000ff;fill-opacity:0.15;stroke:#0000ff;stroke-opacity:0.15;" x="477.701299" xlink:href="#mdf8fd397b8" y="354.401817"/>
    </g>
   </g>
   <g id="line2d_82">
    <g clip-path="url(#p9945c26d9b)">
     <use style="fill:#0000ff;fill-opacity:0.15;stroke:#0000ff;stroke-opacity:0.15;" x="482.877551" xlink:href="#mdf8fd397b8" y="195.133431"/>
    </g>
   </g>
   <g id="line2d_83">
    <g clip-path="url(#p9945c26d9b)">
     <use style="fill:#0000ff;fill-opacity:0.15;stroke:#0000ff;stroke-opacity:0.15;" x="488.053803" xlink:href="#mdf8fd397b8" y="428.167352"/>
    </g>
   </g>
   <g id="line2d_84">
    <g clip-path="url(#p9945c26d9b)">
     <use style="fill:#0000ff;fill-opacity:0.15;stroke:#0000ff;stroke-opacity:0.15;" x="493.230056" xlink:href="#mdf8fd397b8" y="149.929182"/>
    </g>
   </g>
   <g id="line2d_85">
    <g clip-path="url(#p9945c26d9b)">
     <use style="fill:#0000ff;fill-opacity:0.15;stroke:#0000ff;stroke-opacity:0.15;" x="498.406308" xlink:href="#mdf8fd397b8" y="109.069188"/>
    </g>
   </g>
   <g id="line2d_86">
    <g clip-path="url(#p9945c26d9b)">
     <use style="fill:#0000ff;fill-opacity:0.15;stroke:#0000ff;stroke-opacity:0.15;" x="503.58256" xlink:href="#mdf8fd397b8" y="438.051378"/>
    </g>
   </g>
   <g id="line2d_87">
    <g clip-path="url(#p9945c26d9b)">
     <use style="fill:#0000ff;fill-opacity:0.15;stroke:#0000ff;stroke-opacity:0.15;" x="508.758813" xlink:href="#mdf8fd397b8" y="405.214492"/>
    </g>
   </g>
   <g id="line2d_88">
    <g clip-path="url(#p9945c26d9b)">
     <use style="fill:#0000ff;fill-opacity:0.15;stroke:#0000ff;stroke-opacity:0.15;" x="513.935065" xlink:href="#mdf8fd397b8" y="514.106386"/>
    </g>
   </g>
   <g id="line2d_89">
    <g clip-path="url(#p9945c26d9b)">
     <use style="fill:#0000ff;fill-opacity:0.15;stroke:#0000ff;stroke-opacity:0.15;" x="519.111317" xlink:href="#mdf8fd397b8" y="509.874457"/>
    </g>
   </g>
   <g id="line2d_90">
    <g clip-path="url(#p9945c26d9b)">
     <use style="fill:#0000ff;fill-opacity:0.15;stroke:#0000ff;stroke-opacity:0.15;" x="524.28757" xlink:href="#mdf8fd397b8" y="92.208297"/>
    </g>
   </g>
   <g id="line2d_91">
    <g clip-path="url(#p9945c26d9b)">
     <use style="fill:#0000ff;fill-opacity:0.15;stroke:#0000ff;stroke-opacity:0.15;" x="529.463822" xlink:href="#mdf8fd397b8" y="122.92394"/>
    </g>
   </g>
   <g id="line2d_92">
    <g clip-path="url(#p9945c26d9b)">
     <use style="fill:#0000ff;fill-opacity:0.15;stroke:#0000ff;stroke-opacity:0.15;" x="534.640074" xlink:href="#mdf8fd397b8" y="403.82831"/>
    </g>
   </g>
   <g id="line2d_93">
    <g clip-path="url(#p9945c26d9b)">
     <use style="fill:#0000ff;fill-opacity:0.15;stroke:#0000ff;stroke-opacity:0.15;" x="539.816327" xlink:href="#mdf8fd397b8" y="529.548396"/>
    </g>
   </g>
   <g id="line2d_94">
    <g clip-path="url(#p9945c26d9b)">
     <use style="fill:#0000ff;fill-opacity:0.15;stroke:#0000ff;stroke-opacity:0.15;" x="544.992579" xlink:href="#mdf8fd397b8" y="640.8"/>
    </g>
   </g>
   <g id="line2d_95">
    <g clip-path="url(#p9945c26d9b)">
     <use style="fill:#0000ff;fill-opacity:0.15;stroke:#0000ff;stroke-opacity:0.15;" x="550.168831" xlink:href="#mdf8fd397b8" y="414.985135"/>
    </g>
   </g>
   <g id="line2d_96">
    <g clip-path="url(#p9945c26d9b)">
     <use style="fill:#0000ff;fill-opacity:0.15;stroke:#0000ff;stroke-opacity:0.15;" x="555.345083" xlink:href="#mdf8fd397b8" y="361.630529"/>
    </g>
   </g>
   <g id="line2d_97">
    <g clip-path="url(#p9945c26d9b)">
     <use style="fill:#0000ff;fill-opacity:0.15;stroke:#0000ff;stroke-opacity:0.15;" x="560.521336" xlink:href="#mdf8fd397b8" y="149.638865"/>
    </g>
   </g>
   <g id="line2d_98">
    <g clip-path="url(#p9945c26d9b)">
     <use style="fill:#0000ff;fill-opacity:0.15;stroke:#0000ff;stroke-opacity:0.15;" x="565.697588" xlink:href="#mdf8fd397b8" y="570.938954"/>
    </g>
   </g>
   <g id="line2d_99">
    <g clip-path="url(#p9945c26d9b)">
     <use style="fill:#0000ff;fill-opacity:0.15;stroke:#0000ff;stroke-opacity:0.15;" x="570.87384" xlink:href="#mdf8fd397b8" y="499.256649"/>
    </g>
   </g>
   <g id="line2d_100">
    <g clip-path="url(#p9945c26d9b)">
     <use style="fill:#0000ff;fill-opacity:0.15;stroke:#0000ff;stroke-opacity:0.15;" x="576.050093" xlink:href="#mdf8fd397b8" y="592.630695"/>
    </g>
   </g>
   <g id="line2d_101">
    <g clip-path="url(#p9945c26d9b)">
     <use style="fill:#0000ff;fill-opacity:0.15;stroke:#0000ff;stroke-opacity:0.15;" x="581.226345" xlink:href="#mdf8fd397b8" y="87.323045"/>
    </g>
   </g>
   <g id="line2d_102">
    <g clip-path="url(#p9945c26d9b)">
     <use style="fill:#0000ff;fill-opacity:0.15;stroke:#0000ff;stroke-opacity:0.15;" x="586.402597" xlink:href="#mdf8fd397b8" y="204.360942"/>
    </g>
   </g>
   <g id="line2d_103">
    <g clip-path="url(#p9945c26d9b)">
     <use style="fill:#0000ff;fill-opacity:0.15;stroke:#0000ff;stroke-opacity:0.15;" x="591.57885" xlink:href="#mdf8fd397b8" y="131.466599"/>
    </g>
   </g>
   <g id="line2d_104">
    <g clip-path="url(#p9945c26d9b)">
     <use style="fill:#0000ff;fill-opacity:0.15;stroke:#0000ff;stroke-opacity:0.15;" x="596.755102" xlink:href="#mdf8fd397b8" y="617.996957"/>
    </g>
   </g>
   <g id="line2d_105">
    <g clip-path="url(#p9945c26d9b)">
     <use style="fill:#0000ff;fill-opacity:0.15;stroke:#0000ff;stroke-opacity:0.15;" x="601.931354" xlink:href="#mdf8fd397b8" y="557.902176"/>
    </g>
   </g>
   <g id="line2d_106">
    <g clip-path="url(#p9945c26d9b)">
     <use style="fill:#0000ff;fill-opacity:0.15;stroke:#0000ff;stroke-opacity:0.15;" x="607.107607" xlink:href="#mdf8fd397b8" y="402.087075"/>
    </g>
   </g>
   <g id="line2d_107">
    <g clip-path="url(#p9945c26d9b)">
     <use style="fill:#0000ff;fill-opacity:0.15;stroke:#0000ff;stroke-opacity:0.15;" x="612.283859" xlink:href="#mdf8fd397b8" y="271.253712"/>
    </g>
   </g>
   <g id="line2d_108">
    <g clip-path="url(#p9945c26d9b)">
     <use style="fill:#0000ff;fill-opacity:0.15;stroke:#0000ff;stroke-opacity:0.15;" x="617.460111" xlink:href="#mdf8fd397b8" y="624.553067"/>
    </g>
   </g>
   <g id="line2d_109">
    <g clip-path="url(#p9945c26d9b)">
     <use style="fill:#0000ff;fill-opacity:0.15;stroke:#0000ff;stroke-opacity:0.15;" x="622.636364" xlink:href="#mdf8fd397b8" y="222.370249"/>
    </g>
   </g>
   <g id="patch_3">
    <path d="M 90 640.8 
L 90 86.4 
" style="fill:none;stroke:#000000;stroke-linecap:square;stroke-linejoin:miter;stroke-width:0.8;"/>
   </g>
   <g id="patch_4">
    <path d="M 648 640.8 
L 648 86.4 
" style="fill:none;stroke:#000000;stroke-linecap:square;stroke-linejoin:miter;stroke-width:0.8;"/>
   </g>
   <g id="patch_5">
    <path d="M 90 640.8 
L 648 640.8 
" style="fill:none;stroke:#000000;stroke-linecap:square;stroke-linejoin:miter;stroke-width:0.8;"/>
   </g>
   <g id="patch_6">
    <path d="M 90 86.4 
L 648 86.4 
" style="fill:none;stroke:#000000;stroke-linecap:square;stroke-linejoin:miter;stroke-width:0.8;"/>
   </g>
   <g id="text_13">
    <!-- Distribucion Uniforme -->
    <g transform="translate(303.601875 80.4)scale(0.12 -0.12)">
     <defs>
      <path d="M 19.671875 64.796875 
L 19.671875 8.109375 
L 31.59375 8.109375 
Q 46.6875 8.109375 53.6875 14.9375 
Q 60.6875 21.78125 60.6875 36.53125 
Q 60.6875 51.171875 53.6875 57.984375 
Q 46.6875 64.796875 31.59375 64.796875 
z
M 9.8125 72.90625 
L 30.078125 72.90625 
Q 51.265625 72.90625 61.171875 64.09375 
Q 71.09375 55.28125 71.09375 36.53125 
Q 71.09375 17.671875 61.125 8.828125 
Q 51.171875 0 30.078125 0 
L 9.8125 0 
z
" id="DejaVuSans-68"/>
      <path d="M 18.3125 70.21875 
L 18.3125 54.6875 
L 36.8125 54.6875 
L 36.8125 47.703125 
L 18.3125 47.703125 
L 18.3125 18.015625 
Q 18.3125 11.328125 20.140625 9.421875 
Q 21.96875 7.515625 27.59375 7.515625 
L 36.8125 7.515625 
L 36.8125 0 
L 27.59375 0 
Q 17.1875 0 13.234375 3.875 
Q 9.28125 7.765625 9.28125 18.015625 
L 9.28125 47.703125 
L 2.6875 47.703125 
L 2.6875 54.6875 
L 9.28125 54.6875 
L 9.28125 70.21875 
z
" id="DejaVuSans-116"/>
      <path d="M 48.6875 27.296875 
Q 48.6875 37.203125 44.609375 42.84375 
Q 40.53125 48.484375 33.40625 48.484375 
Q 26.265625 48.484375 22.1875 42.84375 
Q 18.109375 37.203125 18.109375 27.296875 
Q 18.109375 17.390625 22.1875 11.75 
Q 26.265625 6.109375 33.40625 6.109375 
Q 40.53125 6.109375 44.609375 11.75 
Q 48.6875 17.390625 48.6875 27.296875 
z
M 18.109375 46.390625 
Q 20.953125 51.265625 25.265625 53.625 
Q 29.59375 56 35.59375 56 
Q 45.5625 56 51.78125 48.09375 
Q 58.015625 40.1875 58.015625 27.296875 
Q 58.015625 14.40625 51.78125 6.484375 
Q 45.5625 -1.421875 35.59375 -1.421875 
Q 29.59375 -1.421875 25.265625 0.953125 
Q 20.953125 3.328125 18.109375 8.203125 
L 18.109375 0 
L 9.078125 0 
L 9.078125 75.984375 
L 18.109375 75.984375 
z
" id="DejaVuSans-98"/>
      <path d="M 8.5 21.578125 
L 8.5 54.6875 
L 17.484375 54.6875 
L 17.484375 21.921875 
Q 17.484375 14.15625 20.5 10.265625 
Q 23.53125 6.390625 29.59375 6.390625 
Q 36.859375 6.390625 41.078125 11.03125 
Q 45.3125 15.671875 45.3125 23.6875 
L 45.3125 54.6875 
L 54.296875 54.6875 
L 54.296875 0 
L 45.3125 0 
L 45.3125 8.40625 
Q 42.046875 3.421875 37.71875 1 
Q 33.40625 -1.421875 27.6875 -1.421875 
Q 18.265625 -1.421875 13.375 4.4375 
Q 8.5 10.296875 8.5 21.578125 
z
M 31.109375 56 
z
" id="DejaVuSans-117"/>
      <path d="M 48.78125 52.59375 
L 48.78125 44.1875 
Q 44.96875 46.296875 41.140625 47.34375 
Q 37.3125 48.390625 33.40625 48.390625 
Q 24.65625 48.390625 19.8125 42.84375 
Q 14.984375 37.3125 14.984375 27.296875 
Q 14.984375 17.28125 19.8125 11.734375 
Q 24.65625 6.203125 33.40625 6.203125 
Q 37.3125 6.203125 41.140625 7.25 
Q 44.96875 8.296875 48.78125 10.40625 
L 48.78125 2.09375 
Q 45.015625 0.34375 40.984375 -0.53125 
Q 36.96875 -1.421875 32.421875 -1.421875 
Q 20.0625 -1.421875 12.78125 6.34375 
Q 5.515625 14.109375 5.515625 27.296875 
Q 5.515625 40.671875 12.859375 48.328125 
Q 20.21875 56 33.015625 56 
Q 37.15625 56 41.109375 55.140625 
Q 45.0625 54.296875 48.78125 52.59375 
z
" id="DejaVuSans-99"/>
      <path d="M 54.890625 33.015625 
L 54.890625 0 
L 45.90625 0 
L 45.90625 32.71875 
Q 45.90625 40.484375 42.875 44.328125 
Q 39.84375 48.1875 33.796875 48.1875 
Q 26.515625 48.1875 22.3125 43.546875 
Q 18.109375 38.921875 18.109375 30.90625 
L 18.109375 0 
L 9.078125 0 
L 9.078125 54.6875 
L 18.109375 54.6875 
L 18.109375 46.1875 
Q 21.34375 51.125 25.703125 53.5625 
Q 30.078125 56 35.796875 56 
Q 45.21875 56 50.046875 50.171875 
Q 54.890625 44.34375 54.890625 33.015625 
z
" id="DejaVuSans-110"/>
      <path id="DejaVuSans-32"/>
      <path d="M 8.6875 72.90625 
L 18.609375 72.90625 
L 18.609375 28.609375 
Q 18.609375 16.890625 22.84375 11.734375 
Q 27.09375 6.59375 36.625 6.59375 
Q 46.09375 6.59375 50.34375 11.734375 
Q 54.59375 16.890625 54.59375 28.609375 
L 54.59375 72.90625 
L 64.5 72.90625 
L 64.5 27.390625 
Q 64.5 13.140625 57.4375 5.859375 
Q 50.390625 -1.421875 36.625 -1.421875 
Q 22.796875 -1.421875 15.734375 5.859375 
Q 8.6875 13.140625 8.6875 27.390625 
z
" id="DejaVuSans-85"/>
      <path d="M 37.109375 75.984375 
L 37.109375 68.5 
L 28.515625 68.5 
Q 23.6875 68.5 21.796875 66.546875 
Q 19.921875 64.59375 19.921875 59.515625 
L 19.921875 54.6875 
L 34.71875 54.6875 
L 34.71875 47.703125 
L 19.921875 47.703125 
L 19.921875 0 
L 10.890625 0 
L 10.890625 47.703125 
L 2.296875 47.703125 
L 2.296875 54.6875 
L 10.890625 54.6875 
L 10.890625 58.5 
Q 10.890625 67.625 15.140625 71.796875 
Q 19.390625 75.984375 28.609375 75.984375 
z
" id="DejaVuSans-102"/>
      <path d="M 52 44.1875 
Q 55.375 50.25 60.0625 53.125 
Q 64.75 56 71.09375 56 
Q 79.640625 56 84.28125 50.015625 
Q 88.921875 44.046875 88.921875 33.015625 
L 88.921875 0 
L 79.890625 0 
L 79.890625 32.71875 
Q 79.890625 40.578125 77.09375 44.375 
Q 74.3125 48.1875 68.609375 48.1875 
Q 61.625 48.1875 57.5625 43.546875 
Q 53.515625 38.921875 53.515625 30.90625 
L 53.515625 0 
L 44.484375 0 
L 44.484375 32.71875 
Q 44.484375 40.625 41.703125 44.40625 
Q 38.921875 48.1875 33.109375 48.1875 
Q 26.21875 48.1875 22.15625 43.53125 
Q 18.109375 38.875 18.109375 30.90625 
L 18.109375 0 
L 9.078125 0 
L 9.078125 54.6875 
L 18.109375 54.6875 
L 18.109375 46.1875 
Q 21.1875 51.21875 25.484375 53.609375 
Q 29.78125 56 35.6875 56 
Q 41.65625 56 45.828125 52.96875 
Q 50 49.953125 52 44.1875 
z
" id="DejaVuSans-109"/>
      <path d="M 56.203125 29.59375 
L 56.203125 25.203125 
L 14.890625 25.203125 
Q 15.484375 15.921875 20.484375 11.0625 
Q 25.484375 6.203125 34.421875 6.203125 
Q 39.59375 6.203125 44.453125 7.46875 
Q 49.3125 8.734375 54.109375 11.28125 
L 54.109375 2.78125 
Q 49.265625 0.734375 44.1875 -0.34375 
Q 39.109375 -1.421875 33.890625 -1.421875 
Q 20.796875 -1.421875 13.15625 6.1875 
Q 5.515625 13.8125 5.515625 26.8125 
Q 5.515625 40.234375 12.765625 48.109375 
Q 20.015625 56 32.328125 56 
Q 43.359375 56 49.78125 48.890625 
Q 56.203125 41.796875 56.203125 29.59375 
z
M 47.21875 32.234375 
Q 47.125 39.59375 43.09375 43.984375 
Q 39.0625 48.390625 32.421875 48.390625 
Q 24.90625 48.390625 20.390625 44.140625 
Q 15.875 39.890625 15.1875 32.171875 
z
" id="DejaVuSans-101"/>
     </defs>
     <use xlink:href="#DejaVuSans-68"/>
     <use x="77.001953" xlink:href="#DejaVuSans-105"/>
     <use x="104.785156" xlink:href="#DejaVuSans-115"/>
     <use x="156.884766" xlink:href="#DejaVuSans-116"/>
     <use x="196.09375" xlink:href="#DejaVuSans-114"/>
     <use x="237.207031" xlink:href="#DejaVuSans-105"/>
     <use x="264.990234" xlink:href="#DejaVuSans-98"/>
     <use x="328.466797" xlink:href="#DejaVuSans-117"/>
     <use x="391.845703" xlink:href="#DejaVuSans-99"/>
     <use x="446.826172" xlink:href="#DejaVuSans-105"/>
     <use x="474.609375" xlink:href="#DejaVuSans-111"/>
     <use x="535.791016" xlink:href="#DejaVuSans-110"/>
     <use x="599.169922" xlink:href="#DejaVuSans-32"/>
     <use x="630.957031" xlink:href="#DejaVuSans-85"/>
     <use x="704.150391" xlink:href="#DejaVuSans-110"/>
     <use x="767.529297" xlink:href="#DejaVuSans-105"/>
     <use x="795.3125" xlink:href="#DejaVuSans-102"/>
     <use x="830.517578" xlink:href="#DejaVuSans-111"/>
     <use x="891.699219" xlink:href="#DejaVuSans-114"/>
     <use x="931.0625" xlink:href="#DejaVuSans-109"/>
     <use x="1028.474609" xlink:href="#DejaVuSans-101"/>
    </g>
   </g>
  </g>
 </g>
 <defs>
  <clipPath id="p9945c26d9b">
   <rect height="554.4" width="558" x="90" y="86.4"/>
  </clipPath>
 </defs>
</svg>
